<svg xmlns="http://www.w3.org/2000/svg" viewBox="0 0 216 126" width="216" height="126" style="width:100%;height:100%;transform:translate3d(0,0,0)"><defs><clipPath id="a"><path d="M0 0h216v126H0z"/></clipPath><clipPath id="b"><path d="M0 0h216v126H0z"/></clipPath></defs><g clip-path="url(#a)"><g opacity=".999"><path fill="#ECECEC" d="M75-28a7 7 0 1 1 0 14h22a7 7 0 1 1 0 14H78a7 7 0 1 0 0 14h6a7 7 0 1 1 0 14H32a7.056 7.056 0 0 1-1.5-.161A7.056 7.056 0 0 1 29 28h-91a7 7 0 1 1 0-14h-39a7 7 0 1 1 0-14h40a7 7 0 1 0 0-14h-25a7 7 0 1 1 0-14H75zm26 42a7 7 0 1 1 0 14 7 7 0 0 1 0-14z" transform="translate(108 71)" opacity="1" style="display:block"/></g><g clip-path="url(#b)" style="display:block"><g style="display:block"><path fill="#F2F2F2" d="M147.496 19.875v15.29H78.125v-15.29h69.37z"/><path d="M147.496 19.875v15.29H78.125v-15.29h69.37z" fill="none"/></g><path fill="#F2F2F2" d="M-33.5-7.5h67l-6 9 8 6h-71l9-6-7-9z" transform="translate(112.5 27.5)" style="display:block"/><path stroke="#D9D9D9" stroke-width="2.5" d="M-35 7V-5c0-1.105.804-2 1.795-2h66.41C34.196-7 35-6.105 35-5V7" fill="none" transform="translate(113 27)" style="display:block"/><path stroke-linecap="round" stroke="#D9D9D9" stroke-width="2.5" d="M-3.221-6.502 3.885.514a1 1 0 0 1-.217 1.587l-7.951 4.401" fill="none" transform="translate(82.282 27.498)" style="display:block"/><path stroke-linecap="round" stroke="#D9D9D9" stroke-width="2.5" d="M2.831-6.465-3.971.472a1 1 0 0 0 .235 1.578l8.094 4.415" fill="none" transform="translate(144.278 27.535)" style="display:block"/><path fill="#FFF" d="M-37.247 3.715V-36.5c0-1.657 1.36-3 3.037-3h69.48c1.092 0 1.977.895 1.977 2v73c0 2.209-1.771 4-3.955 4h-66.584c-2.184 0-3.955-1.791-3.955-4V3.715zm0 8.682V7.894v4.503zm.021 3.659V3.409v12.647z" transform="translate(113.253 73.5)" style="display:block"/><path stroke-linecap="round" stroke="#D9D9D9" stroke-width="2.5" d="M-37.226 16.056V3.408m-.021.306V-36.5c0-1.657 1.36-3 3.037-3h69.48c1.092 0 1.977.895 1.977 2v73c0 2.209-1.771 4-3.955 4h-66.584c-2.184 0-3.955-1.791-3.955-4V3.714zm0 8.683V7.893v4.504z" fill="none" transform="translate(113.253 73.501)" style="display:block"/><g style="display:block"><path fill="#FFF" d="M96.5 55a3.5 3.5 0 1 0 0-7 3.5 3.5 0 0 0 0 7z"/><path stroke="#D9D9D9" stroke-width="2.5" d="M96.5 55a3.5 3.5 0 1 0 0-7 3.5 3.5 0 0 0 0 7z" fill="none"/></g><g style="display:block"><path fill="#FFF" d="M129.5 55a3.5 3.5 0 1 0 0-7 3.5 3.5 0 0 0 0 7z"/><path stroke="#D9D9D9" stroke-width="2.5" d="M129.5 55a3.5 3.5 0 1 0 0-7 3.5 3.5 0 0 0 0 7z" fill="none"/></g><path stroke-linecap="round" stroke="#D9D9D9" stroke-width="2.5" d="M16-8C16 .837 8.837 8 0 8S-16 .837-16-8" fill="none" transform="translate(113 63)" style="display:block"/></g><g transform="translate(108.25 59.5)" style="display:block"/><g transform="rotate(-20 215.76 -273.167)" style="display:block"/><g transform="rotate(20 -98.01 340.75)" style="display:block"/><path fill="#FFF" d="M-37.247 3.715V-36.5c0-1.657 1.36-3 3.037-3h69.48c1.092 0 1.977.895 1.977 2v73c0 2.209-1.771 4-3.955 4h-66.584c-2.184 0-3.955-1.791-3.955-4V3.715zm0 8.682V7.894v4.503zm.021 3.659V3.409v12.647z" transform="translate(113.253 73.5)" style="display:block"/><path stroke-linecap="round" stroke="#D9D9D9" stroke-width="2.5" d="M-37.226 16.056V3.408m-.021.306V-36.5c0-1.657 1.36-3 3.037-3h69.48c1.092 0 1.977.895 1.977 2v73c0 2.209-1.771 4-3.955 4h-66.584c-2.184 0-3.955-1.791-3.955-4V3.714zm0 8.683V7.893v4.504z" fill="none" transform="translate(113.253 73.501)" style="display:block"/><g style="display:block"><path fill="#FFF" d="M96.5 55a3.5 3.5 0 1 0 0-7 3.5 3.5 0 0 0 0 7z"/><path stroke="#D9D9D9" stroke-width="2.5" d="M96.5 55a3.5 3.5 0 1 0 0-7 3.5 3.5 0 0 0 0 7z" fill="none"/></g><g style="display:block"><path fill="#FFF" d="M129.5 55a3.5 3.5 0 1 0 0-7 3.5 3.5 0 0 0 0 7z"/><path stroke="#D9D9D9" stroke-width="2.5" d="M129.5 55a3.5 3.5 0 1 0 0-7 3.5 3.5 0 0 0 0 7z" fill="none"/></g><path stroke-linecap="round" stroke="#D9D9D9" stroke-width="2.5" d="M16-8C16 .837 8.837 8 0 8S-16 .837-16-8" fill="none" transform="translate(113 63)" style="display:block"/></g></svg>