<svg width="116" height="116" viewBox="0 0 116 116" fill="none" xmlns="http://www.w3.org/2000/svg">
    <path
        d="M28.366 33.373a4.653 4.653 0 0 0 0 6.588l18.129 18.128-18.129 18.129a4.659 4.659 0 0 0 6.588 6.588L56.4 61.36a4.655 4.655 0 0 0 0-6.588L34.954 33.326c-1.775-1.776-4.765-1.776-6.588.047Z"
        fill="#4E47E5" />
    <path
        d="M59.366 33.373a4.653 4.653 0 0 0 0 6.588l18.129 18.128-18.129 18.129a4.659 4.659 0 0 0 6.588 6.588L87.4 61.36a4.655 4.655 0 0 0 0-6.588L65.954 33.326c-1.775-1.776-4.765-1.776-6.588.047Z"
        fill="#4E47E5" />
    <circle cx="58" cy="58" r="54" stroke="#4E47E5" stroke-width="8" />
</svg>