<svg xmlns="http://www.w3.org/2000/svg" viewBox="0 0 216 128" width="216" height="128"
    style="width:100%;height:100%;transform:translate3d(0,0,0)">
    <defs>
        <clipPath id="a">
            <path d="M0 0h216v128H0z" />
        </clipPath>
        <clipPath id="b">
            <path d="M0 0h216v128H0z" />
        </clipPath>
    </defs>
    <g clip-path="url(#a)">
        <g opacity=".999">
            <path fill="#ECECEC"
                d="M75-28a7 7 0 1 1 0 14h22a7 7 0 1 1 0 14H78a7 7 0 1 0 0 14h6a7 7 0 1 1 0 14H32a7.056 7.056 0 0 1-1.5-.161A7.056 7.056 0 0 1 29 28h-91a7 7 0 1 1 0-14h-39a7 7 0 1 1 0-14h40a7 7 0 1 0 0-14h-25a7 7 0 1 1 0-14H75zm26 42a7 7 0 1 1 0 14 7 7 0 0 1 0-14z"
                transform="translate(108 71)" opacity="1" style="display:block" />
        </g>
        <g style="display:block" fill="#D9D9D9">
            <path d="m174.388 14.221-.318-7.235a1.357 1.357 0 1 1 2.712-.12l.319 7.236a1.358 1.358 0 0 1-2.713.12z" />
            <path
                d="M170.612 10.762a1.357 1.357 0 0 1 1.297-1.415l7.233-.319a1.36 1.36 0 0 1 1.417 1.296 1.36 1.36 0 0 1-1.297 1.415l-7.233.32a1.357 1.357 0 0 1-1.417-1.297z" />
        </g>
        <g style="display:block" fill="#D9D9D9">
            <path d="m161.218 28.825-.32-7.233a1.357 1.357 0 1 1 2.712-.12l.32 7.233a1.357 1.357 0 1 1-2.712.12z" />
            <path
                d="M157.44 25.368a1.357 1.357 0 0 1 1.298-1.417l7.233-.319a1.358 1.358 0 0 1 .12 2.714l-7.234.319a1.359 1.359 0 0 1-1.416-1.297z" />
        </g>
        <g style="display:block" fill="#D9D9D9">
            <path d="m175.389 36.999-.319-7.235a1.358 1.358 0 0 1 2.711-.12l.32 7.235a1.357 1.357 0 1 1-2.712.12z" />
            <path
                d="M171.612 33.54a1.358 1.358 0 0 1 1.297-1.416l7.233-.319a1.357 1.357 0 1 1 .12 2.712l-7.234.319a1.358 1.358 0 0 1-1.416-1.296z" />
        </g>
        <g clip-path="url(#b)" style="display:block">
            <g style="display:block">
                <path fill="#F7F7F7"
                    d="M146.813 9.423H70.789a5.43 5.43 0 0 0-5.43 5.429v97.682c0 3 2.432 5.431 5.43 5.431h76.024a5.43 5.43 0 0 0 5.43-5.431V14.852a5.429 5.429 0 0 0-5.43-5.429z" />
                <path fill="#FFF"
                    d="M143.193 9.359H70.789a5.432 5.432 0 0 0-5.43 5.43v94.12h72.403c3 0 5.431-2.431 5.431-5.431V9.359z" />
                <path fill="#D9D9D9"
                    d="M70.789 10.717a4.08 4.08 0 0 0-4.073 4.073v97.744a4.077 4.077 0 0 0 4.073 4.073h76.024a4.077 4.077 0 0 0 4.073-4.073V14.79a4.08 4.08 0 0 0-4.073-4.073H70.789zm76.024 108.605H70.789a6.796 6.796 0 0 1-6.788-6.788V14.79c0-3.74 3.046-6.788 6.788-6.788h76.024c3.742 0 6.788 3.048 6.788 6.788v97.744a6.796 6.796 0 0 1-6.788 6.788z" />
                <path fill="#F7F7F7"
                    d="M134.142 9.425H87.08v7.241c0 3 2.432 5.431 5.43 5.431h36.202a5.43 5.43 0 0 0 5.43-5.431V9.425z" />
                <path fill="#FFF"
                    d="M123.282 9.425H87.08v7.241c0 3 2.431 5.431 5.43 5.431h23.531a7.24 7.24 0 0 0 7.241-7.242v-5.43z" />
                <path fill="#D9D9D9"
                    d="M88.437 10.783v5.883a4.078 4.078 0 0 0 4.073 4.073h36.202a4.078 4.078 0 0 0 4.073-4.073v-5.883H88.437zm40.275 12.671H92.51c-3.741 0-6.788-3.045-6.788-6.788v-7.24c0-.748.607-1.358 1.358-1.358h47.062c.75 0 1.358.61 1.358 1.358v7.24c0 3.743-3.047 6.788-6.788 6.788z" />
                <path fill="#F7F7F7"
                    d="m79.874 43.759 3.62-.018a3.618 3.618 0 0 0 3.603-3.636l-.019-3.62a3.618 3.618 0 0 0-3.633-3.604l-3.621.017a3.622 3.622 0 0 0-3.604 3.639l.016 3.62a3.621 3.621 0 0 0 3.638 3.602z" />
                <path fill="#D9D9D9"
                    d="M83.463 34.241h-.013l-3.624.014a2.27 2.27 0 0 0-2.25 2.277l.018 3.619c.004.604.241 1.171.67 1.596.429.428 1.012.681 1.604.654h.002l3.621-.015a2.267 2.267 0 0 0 2.25-2.275l-.019-3.618a2.266 2.266 0 0 0-.669-1.599 2.247 2.247 0 0 0-1.59-.653zm-3.608 10.875a4.945 4.945 0 0 1-3.503-1.439 4.946 4.946 0 0 1-1.473-3.515l-.018-3.619a4.99 4.99 0 0 1 4.955-5.003l3.621-.014c1.298.025 2.58.503 3.524 1.439a4.94 4.94 0 0 1 1.476 3.513l.019 3.62a4.987 4.987 0 0 1-4.956 5.003l-3.62.015h-.025z" />
                <path fill="#F7F7F7"
                    d="m79.874 65.482 3.62-.015a3.622 3.622 0 0 0 3.603-3.64l-.019-3.62a3.615 3.615 0 0 0-3.633-3.602l-3.621.016a3.622 3.622 0 0 0-3.604 3.639l.016 3.621a3.619 3.619 0 0 0 3.638 3.601z" />
                <path fill="#D9D9D9"
                    d="M83.459 55.963h-.013l-3.616.018a2.254 2.254 0 0 0-1.599.67 2.24 2.24 0 0 0-.655 1.602l.018 3.62c.004.605.241 1.17.67 1.597.427.423.994.657 1.593.657h.011l3.62-.018a2.246 2.246 0 0 0 1.595-.67c.427-.429.66-1.001.657-1.605l-.018-3.619a2.26 2.26 0 0 0-.67-1.596 2.241 2.241 0 0 0-1.593-.656zm-3.602 10.879a4.94 4.94 0 0 1-3.504-1.443 4.953 4.953 0 0 1-1.474-3.515l-.018-3.618a4.985 4.985 0 0 1 4.956-5l3.618-.018h.024c1.321 0 2.565.511 3.503 1.441a4.939 4.939 0 0 1 1.475 3.513l.018 3.617a4.962 4.962 0 0 1-1.441 3.531 4.946 4.946 0 0 1-3.515 1.474l-3.62.018c0-.002-.011 0-.022 0z" />
                <path fill="#F7F7F7"
                    d="m79.874 87.206 3.62-.016a3.622 3.622 0 0 0 3.603-3.639l-.019-3.62a3.616 3.616 0 0 0-3.633-3.602l-3.621.015a3.622 3.622 0 0 0-3.604 3.639l.016 3.621a3.62 3.62 0 0 0 3.638 3.602z" />
                <path fill="#D9D9D9"
                    d="M83.459 77.686h-.013l-3.616.018a2.263 2.263 0 0 0-2.254 2.276l.018 3.618c.004.605.241 1.171.67 1.595.429.423.997.738 1.604.657l3.62-.018a2.246 2.246 0 0 0 1.595-.67c.427-.429.66-.999.657-1.604l-.018-3.618a2.263 2.263 0 0 0-2.263-2.254zm-3.602 10.879a4.955 4.955 0 0 1-3.504-1.441 4.953 4.953 0 0 1-1.474-3.515l-.018-3.618a4.946 4.946 0 0 1 1.443-3.528 4.95 4.95 0 0 1 3.513-1.474l3.619-.018h.023a4.986 4.986 0 0 1 4.978 4.956l.018 3.619a4.953 4.953 0 0 1-1.441 3.527 4.946 4.946 0 0 1-3.515 1.474l-3.62.018h-.022z" />
                <path fill="#F7F7F7"
                    d="m79.874 108.93 3.62-.017a3.62 3.62 0 0 0 3.603-3.638l-.019-3.622a3.615 3.615 0 0 0-3.633-3.601l-3.621.017a3.62 3.62 0 0 0-3.604 3.637l.016 3.62a3.622 3.622 0 0 0 3.638 3.604z" />
                <path fill="#D9D9D9"
                    d="M83.463 99.411h-.013l-3.624.015a2.27 2.27 0 0 0-2.25 2.277l.018 3.618c.004.605.241 1.171.67 1.595.427.422.994.655 1.593.655h.011l3.62-.016a2.254 2.254 0 0 0 1.597-.67c.425-.429.658-.999.655-1.604l-.018-3.618a2.263 2.263 0 0 0-2.259-2.252zm-3.606 10.875a4.945 4.945 0 0 1-3.504-1.439 4.953 4.953 0 0 1-1.474-3.515l-.018-3.618a4.99 4.99 0 0 1 4.954-5.004l3.622-.014c1.298.036 2.58.505 3.525 1.439a4.947 4.947 0 0 1 1.475 3.515l.018 3.619a4.952 4.952 0 0 1-1.441 3.527 4.945 4.945 0 0 1-3.513 1.474l-3.621.016c0-.002-.012 0-.023 0z" />
            </g>
            <path stroke-linecap="round" stroke="#D9D9D9" stroke-width="2.5"
                d="M94.124 34.375h21.188m5.188-.063h18.624m-44.999 8.063h12.5m5 .063h15.062" fill="none"
                style="display:block" />
            <g style="display:block" stroke-linecap="round" stroke="#D9D9D9" stroke-width="2.5" fill="none">
                <path d="M94.125 56h10.125" />
                <path stroke-linejoin="round" d="M109.25 55.75h15.5" />
            </g>
            <path stroke-linecap="round" stroke="#D9D9D9" stroke-width="2.5"
                d="M-14.5-.125H4m-18.375 13.5h21.25M-14.5 21.5H-.125M-14.25 35.25H6.875m-21.125 8H0" fill="none"
                transform="translate(108 64)" style="display:block" />
        </g>
    </g>
</svg>