<svg xmlns="http://www.w3.org/2000/svg" viewBox="0 0 216 128" width="216" height="128"
    style="width:100%;height:100%;transform:translate3d(0,0,0);content-visibility:visible">
    <defs>
        <clipPath id="a">
            <path d="M0 0h216v128H0z" />
        </clipPath>
        <clipPath id="b">
            <path d="M0 0h216v128H0z" />
        </clipPath>
    </defs>
    <g clip-path="url(#a)">
        <g opacity=".999" style="display:block">
            <path fill="#ECECEC"
                d="M183 43a7 7 0 1 1 0 14h22a7 7 0 1 1 0 14h-19a7 7 0 1 0 0 14h6a7 7 0 1 1 0 14h-52a7.056 7.056 0 0 1-1.5-.161A7.056 7.056 0 0 1 137 99H46a7 7 0 1 1 0-14H7a7 7 0 1 1 0-14h40a7 7 0 1 0 0-14H22a7 7 0 1 1 0-14h161zm26 42a7 7 0 1 1 0 14 7 7 0 0 1 0-14z"
                opacity="1" />
        </g>
        <g clip-path="url(#b)" transform="translate(-.014 .983)" style="display:block">
            <g style="display:block">
                <path fill="#FFF"
                    d="M106.8 111.6c29.161 0 52.8-23.639 52.8-52.8 0-29.161-23.639-52.8-52.8-52.8C77.639 6 54 29.639 54 58.8c0 29.161 23.639 52.8 52.8 52.8z" />
                <path stroke-linecap="round" stroke="#D9D9D9" stroke-width="2.75"
                    d="M106.8 111.6c29.161 0 52.8-23.639 52.8-52.8 0-29.161-23.639-52.8-52.8-52.8C77.639 6 54 29.639 54 58.8c0 29.161 23.639 52.8 52.8 52.8zm54.334 9.486L140.79 100.49"
                    fill="none" />
            </g>
            <g style="display:block">
                <path fill="#FFF"
                    d="M84.03 86.743c5.104-7.859 13.631-12.551 22.813-12.551 9.121 0 17.618 4.641 22.727 12.418-11.525-17.651-35.748-15.495-45.54.133z" />
                <path stroke-linecap="round" stroke-linejoin="round" stroke="#D9D9D9" stroke-width="2.75"
                    d="M84.03 86.743c5.104-7.859 13.631-12.551 22.813-12.551 9.121 0 17.618 4.641 22.727 12.418-11.525-17.651-35.748-15.495-45.54.133z"
                    fill="none" />
            </g>
            <path stroke-linecap="round" stroke="#D9D9D9" stroke-width="2.75"
                d="M-9.333-4.667c0 5.155 4.178 9.334 9.332 9.334 5.155 0 9.335-4.179 9.335-9.334" fill="none"
                transform="translate(87.333 45.675)" style="display:block" />
            <path stroke-linecap="round" stroke="#D9D9D9" stroke-width="2.75"
                d="M-9.333-4.667a9.333 9.333 0 1 0 18.666 0" fill="none" transform="translate(126 45.675)"
                style="display:block" />
        </g>
        <g style="display:block" fill="#D9D9D9">
            <path d="M178.455 35.179h-7.24a1.358 1.358 0 0 1 0-2.714h7.24a1.357 1.357 0 1 1 0 2.714z" />
            <path
                d="M174.835 38.8a1.359 1.359 0 0 1-1.358-1.358v-7.24a1.358 1.358 0 0 1 2.716 0v7.24c0 .75-.61 1.358-1.358 1.358z" />
        </g>
        <g style="display:block" fill="#D9D9D9">
            <path d="M167.284 25.006h-7.24a1.357 1.357 0 1 1 0-2.714h7.24a1.358 1.358 0 1 1 0 2.714z" />
            <path
                d="M163.664 28.627a1.357 1.357 0 0 1-1.358-1.358v-7.24a1.358 1.358 0 0 1 2.716 0v7.24c0 .75-.609 1.358-1.358 1.358z" />
        </g>
        <g style="display:block" fill="#D9D9D9">
            <path d="M183.706 15.902h-7.24a1.357 1.357 0 1 1 0-2.714h7.24a1.358 1.358 0 0 1 0 2.714z" />
            <path
                d="M180.086 19.523a1.357 1.357 0 0 1-1.358-1.358v-7.24a1.36 1.36 0 0 1 1.358-1.358c.748 0 1.358.61 1.358 1.358v7.24c0 .752-.61 1.358-1.358 1.358z" />
        </g>
    </g>
</svg>